<svg width="1000" height="1000" viewBox="0 0 1000 1000" fill="none" xmlns="http://www.w3.org/2000/svg">
<rect width="1000" height="1000" fill="#3e00f9"/>
<rect width="1000" height="1000" fill="white"/>
<path d="M660.611 491.058C664.204 491.058 666 492.922 666 496.651V600.68C666 625.669 659.531 644.967 646.597 658.58C633.658 672.193 614.976 679 590.54 679H409.46C385.384 679 366.791 672.193 353.674 658.58C340.558 644.967 334 625.669 334 600.68V399.32C334 373.958 340.558 354.567 353.674 341.138C366.791 327.715 385.384 321 409.46 321H590.54C614.976 321 633.658 327.715 646.597 341.138C659.531 354.567 666 373.958 666 399.32V477.64C666 481.368 664.204 483.233 660.611 483.233H509.169C505.577 483.233 503.78 481.368 503.78 477.64V419.458H496.22V580.542H535.025V572.716H508.626C505.394 572.716 503.78 570.852 503.78 567.124V496.651C503.78 492.922 505.577 491.058 509.169 491.058H660.611Z" fill="black"/>
</svg>

<svg width="0" height="0">
  <defs>
    <clipPath id="logoClip" clipPathUnits="objectBoundingBox">
      <path
        d="M0.660611 0.491058
           C0.664204 0.491058 0.666 0.492922 0.666 0.496651
           V0.60068
           C0.666 0.625669 0.659531 0.644967 0.646597 0.65858
           ..."
      />
    </clipPath>
  </defs>
</svg>
